<?xml version="1.0" encoding="UTF-8" standalone="no"?>
<!-- Created with Inkscape (http://www.inkscape.org/) -->
<svg xmlns:dc="http://purl.org/dc/elements/1.1/" xmlns:cc="http://creativecommons.org/ns#" xmlns:rdf="http://www.w3.org/1999/02/22-rdf-syntax-ns#" xmlns:svg="http://www.w3.org/2000/svg" xmlns="http://www.w3.org/2000/svg" xmlns:xlink="http://www.w3.org/1999/xlink" xmlns:sodipodi="http://sodipodi.sourceforge.net/DTD/sodipodi-0.dtd" xmlns:inkscape="http://www.inkscape.org/namespaces/inkscape" version="1.1" width="507.4375" height="476.05734" id="svg3080" inkscape:version="0.48.2 r9819" sodipodi:docname="vrock.svg">
  <sodipodi:namedview pagecolor="#ffffff" bordercolor="#666666" borderopacity="1" objecttolerance="10" gridtolerance="10" guidetolerance="10" inkscape:pageopacity="0" inkscape:pageshadow="2" inkscape:window-width="1360" inkscape:window-height="706" id="namedview5250" showgrid="false" showguides="true" inkscape:guide-bbox="true" inkscape:zoom="0.10339462" inkscape:cx="-302.41553" inkscape:cy="383.76716" inkscape:window-x="-8" inkscape:window-y="-8" inkscape:window-maximized="1" inkscape:current-layer="layer7" fit-margin-top="0" fit-margin-left="0" fit-margin-right="0" fit-margin-bottom="0"/>
  <defs id="defs3082">
    <linearGradient id="linearGradient6268">
      <stop style="stop-color:#ee3229;stop-opacity:1;" offset="0" id="stop6270"/>
      <stop style="stop-color:#8b261e;stop-opacity:1;" offset="1" id="stop6272"/>
    </linearGradient>
    <linearGradient id="linearGradient6088">
      <stop id="stop6090" offset="0" style="stop-color:#98b3c6;stop-opacity:1;"/>
      <stop style="stop-color:#394e53;stop-opacity:1;" offset="0.22452563" id="stop6092"/>
      <stop style="stop-color:#98b3c6;stop-opacity:1;" offset="0.46812779" id="stop6094"/>
      <stop style="stop-color:#394e53;stop-opacity:1;" offset="0.72522211" id="stop6096"/>
      <stop style="stop-color:#98b3c6;stop-opacity:1;" offset="0.83923203" id="stop6098"/>
      <stop id="stop6100" offset="1" style="stop-color:#394e53;stop-opacity:1;"/>
    </linearGradient>
    <linearGradient id="linearGradient6061">
      <stop style="stop-color:#98b3c6;stop-opacity:1;" offset="0" id="stop6063"/>
      <stop id="stop6077" offset="0.0625" style="stop-color:#394e53;stop-opacity:1;"/>
      <stop id="stop6075" offset="0.125" style="stop-color:#98b3c6;stop-opacity:1;"/>
      <stop id="stop6073" offset="0.25" style="stop-color:#394e53;stop-opacity:1;"/>
      <stop id="stop6071" offset="0.5" style="stop-color:#98b3c6;stop-opacity:1;"/>
      <stop style="stop-color:#394e53;stop-opacity:1;" offset="1" id="stop6065"/>
    </linearGradient>
    <linearGradient id="linearGradient5323">
      <stop id="stop5325" style="stop-color:#ffffff;stop-opacity:1" offset="0"/>
      <stop id="stop5327" style="stop-color:#59595b;stop-opacity:1" offset="1"/>
    </linearGradient>
    <linearGradient id="linearGradient5251">
      <stop id="stop5253" style="stop-color:#c96c23;stop-opacity:1" offset="0"/>
      <stop id="stop5255" style="stop-color:#c96c23;stop-opacity:0" offset="1"/>
    </linearGradient>
    <linearGradient x1="628.36108" y1="826.29004" x2="628.36108" y2="926.24786" id="linearGradient5315" xlink:href="#linearGradient5323" gradientUnits="userSpaceOnUse" gradientTransform="matrix(0.87095825,0,0,0.89825618,38.406264,-292.36638)"/>
    <linearGradient x1="538.48773" y1="827.03497" x2="538.48773" y2="930.19458" id="linearGradient5317" xlink:href="#linearGradient5323" gradientUnits="userSpaceOnUse" gradientTransform="matrix(0.87095825,0,0,0.89825618,38.406264,-292.36638)"/>
    <linearGradient x1="446.10776" y1="826.84644" x2="446.10776" y2="927.19501" id="linearGradient5319" xlink:href="#linearGradient5323" gradientUnits="userSpaceOnUse" gradientTransform="matrix(0.87095825,0,0,0.89825618,38.406264,-292.36638)"/>
    <linearGradient x1="360.61984" y1="826.62329" x2="360.61984" y2="932.42017" id="linearGradient5321" xlink:href="#linearGradient5323" gradientUnits="userSpaceOnUse" gradientTransform="matrix(0.87095825,0,0,0.89825618,38.406264,-292.36638)"/>
    <linearGradient x1="628.36108" y1="826.29004" x2="628.36108" y2="926.24786" id="linearGradient5355" xlink:href="#linearGradient5323" gradientUnits="userSpaceOnUse" gradientTransform="matrix(1.0508691,0,0,1.0838059,0.84614437,-493.21493)"/>
    <linearGradient x1="538.48773" y1="827.03497" x2="538.48773" y2="930.19458" id="linearGradient5357" xlink:href="#linearGradient5323" gradientUnits="userSpaceOnUse" gradientTransform="matrix(1.0508691,0,0,1.0838059,0.84614437,-493.21493)"/>
    <linearGradient x1="446.10776" y1="826.84644" x2="446.10776" y2="927.19501" id="linearGradient5359" xlink:href="#linearGradient5323" gradientUnits="userSpaceOnUse" gradientTransform="matrix(1.0508691,0,0,1.0838059,0.84614437,-493.21493)"/>
    <linearGradient x1="360.61984" y1="826.62329" x2="360.61984" y2="932.42017" id="linearGradient5361" xlink:href="#linearGradient5323" gradientUnits="userSpaceOnUse" gradientTransform="matrix(1.0508691,0,0,1.0838059,0.84614437,-493.21493)"/>
    <filter color-interpolation-filters="sRGB" id="filter3943">
      <feGaussianBlur id="feGaussianBlur3945" stdDeviation="5.0040118"/>
    </filter>
    <filter color-interpolation-filters="sRGB" id="filter3947">
      <feGaussianBlur id="feGaussianBlur3949" stdDeviation="3.0779134"/>
    </filter>
    <linearGradient inkscape:collect="always" xlink:href="#linearGradient6061" id="linearGradient6067" x1="3090.8303" y1="36.446739" x2="3845.6382" y2="36.446739" gradientUnits="userSpaceOnUse"/>
    <linearGradient inkscape:collect="always" xlink:href="#linearGradient6061" id="linearGradient6069" x1="2938.4656" y1="44.779999" x2="3189.4744" y2="44.779999" gradientUnits="userSpaceOnUse"/>
    <linearGradient inkscape:collect="always" xlink:href="#linearGradient6088" id="linearGradient6086" gradientUnits="userSpaceOnUse" x1="3730.0188" y1="265.50745" x2="2983.9336" y2="-253.69681"/>
    <filter inkscape:collect="always" id="filter6240" x="-0.18206903" width="1.3641381" y="-0.35199973" height="1.7039994" color-interpolation-filters="sRGB">
      <feGaussianBlur inkscape:collect="always" stdDeviation="5.93891" id="feGaussianBlur6242"/>
    </filter>
    <linearGradient inkscape:collect="always" xlink:href="#linearGradient6268" id="linearGradient6274" x1="3450.8884" y1="-614.69861" x2="3357.2041" y2="-575.43109" gradientUnits="userSpaceOnUse" gradientTransform="matrix(0.40601408,0,0,0.40601408,1661.8315,299.87773)"/>
    <filter inkscape:collect="always" id="filter6362" x="-0.24861839" width="1.4972368" y="-0.17658184" height="1.3531637" color-interpolation-filters="sRGB">
      <feGaussianBlur inkscape:collect="always" stdDeviation="24.98413" id="feGaussianBlur6364"/>
    </filter>
    <filter inkscape:collect="always" id="filter6366" x="-0.080488004" width="1.1609761" y="-0.17255834" height="1.3451167" color-interpolation-filters="sRGB">
      <feGaussianBlur inkscape:collect="always" stdDeviation="24.98413" id="feGaussianBlur6368"/>
    </filter>
    <filter inkscape:collect="always" id="filter6531" color-interpolation-filters="sRGB">
      <feGaussianBlur inkscape:collect="always" stdDeviation="9.3690486" id="feGaussianBlur6533"/>
    </filter>
    <filter inkscape:collect="always" id="filter6535" color-interpolation-filters="sRGB">
      <feGaussianBlur inkscape:collect="always" stdDeviation="9.3690486" id="feGaussianBlur6537"/>
    </filter>
    <linearGradient inkscape:collect="always" xlink:href="#linearGradient6088" id="linearGradient6709" gradientUnits="userSpaceOnUse" x1="3730.0188" y1="265.50745" x2="2983.9336" y2="-253.69681"/>
    <filter color-interpolation-filters="sRGB" inkscape:collect="always" id="filter6679" x="-0.24554139" width="1.4910828" y="-0.38550001" height="1.771">
      <feGaussianBlur inkscape:collect="always" stdDeviation="9.7094638" id="feGaussianBlur6681"/>
    </filter>
    <linearGradient inkscape:collect="always" xlink:href="#linearGradient6088" id="linearGradient6724" gradientUnits="userSpaceOnUse" x1="3730.0188" y1="265.50745" x2="2983.9336" y2="-253.69681" gradientTransform="matrix(0.40601408,0,0,0.40601408,1661.8315,299.87773)"/>
  </defs>
  <metadata id="metadata3085">
    <rdf:RDF>
      <cc:Work rdf:about="">
        <dc:format>image/svg+xml</dc:format>
        <dc:type rdf:resource="http://purl.org/dc/dcmitype/StillImage"/>
        <dc:title/>
      </cc:Work>
    </rdf:RDF>
  </metadata>
  <g inkscape:groupmode="layer" id="layer10" inkscape:label="Warstwa#3" transform="translate(-2794.9063,-30.505164)">
    <path style="fill:#000000;stroke:#ee312b;stroke-width:2.96390271;stroke-linecap:butt;stroke-linejoin:miter;stroke-miterlimit:8.60000038;stroke-opacity:1;stroke-dasharray:none" d="m 2799.2444,97.377232 497.036,0 c -20.8142,10.844418 -49.3416,16.914278 -60.2122,25.912758 -15.4339,12.77574 -22.815,34.77255 -30.8371,48.66726 L 3032.524,503.37467 2845.4131,146.20321 c -12.2472,-21.21276 -26.841,-33.88798 -46.1687,-48.825978 z" id="path5489" inkscape:connector-curvature="0" sodipodi:nodetypes="ccccccc"/>
    <g transform="matrix(1.0210355,0,0,1.0210355,2573.4472,-138.9312)" id="layer3" style="fill:#ee3229;fill-opacity:1;stroke:none">
      <path d="m 255.3947,243.07979 c 9.23519,7.44217 15.75543,18.55529 22.1024,29.84843 l 171.99479,326.1424 168.68498,-326.1424 c 7.62694,-12.58047 15.85362,-22.17074 24.46115,-29.84843 z" id="path3119" style="fill:#ee3229;fill-opacity:1;stroke:none" inkscape:connector-curvature="0" sodipodi:nodetypes="cccccc"/>
    </g>
  </g>
  <g inkscape:groupmode="layer" id="layer7" inkscape:label="Warstwa" transform="translate(-2794.9063,-30.505164)">
    <path style="fill:none;stroke:#ffffff;stroke-width:15;stroke-linecap:butt;stroke-linejoin:miter;stroke-miterlimit:4;stroke-opacity:1;stroke-dasharray:none;filter:url(#filter6679)" d="m 3248.779,-2.5938686 -47.754,60.4480196 94.9034,0 z" id="path6564" inkscape:connector-curvature="0" transform="matrix(0.40601408,0,0,0.40601408,1661.8315,299.87773)"/>
  </g>
  <g inkscape:groupmode="layer" id="layer8" inkscape:label="Warstwa#1" transform="translate(-2794.9063,-30.505164)">
    <path inkscape:connector-curvature="0" style="fill:#1c68a4;fill-opacity:1;stroke:#000000;stroke-width:2.43608451;stroke-linecap:butt;stroke-linejoin:miter;stroke-miterlimit:4;stroke-opacity:1;stroke-dasharray:none" id="path3768" d="m 3040.0502,119.14749 c -1.9653,-0.57277 -5.1108,-0.61271 -13.1061,-1.0591 -13.2365,-3.55783 -23.9664,-10.43118 -21.1382,-33.894967 -6.8473,-2.400704 -33.8402,9.004556 -48.778,24.123877 -2.3187,1.93807 -3.9477,5.61319 -5.1036,16.10476 l 1.5566,47.13228 43.8474,38.56739 85.6288,-9.41229 0.2296,-35.12386 c 3.3437,-2.43183 6.2031,-5.10575 7.8243,-8.39877 -1.2005,-6.68274 0.2707,-12.95445 4.6931,-18.77211 0.7442,-2.86047 -13.5238,6.35715 0.9985,-11.98222 -1.4122,-1.69113 -2.752,-3.35813 -6.6901,-5.89123 l -10.6363,-13.99721 -12.0036,-8.597118 c -1.8807,-10.320082 -8.0604,-1.423323 -9.0837,4.217458 -1.2361,5.63576 -16.2431,18.74352 -18.2387,16.98311 z"/>
    <path inkscape:connector-curvature="0" style="fill:#ffffff;stroke:#000000;stroke-width:2.43608451;stroke-linecap:butt;stroke-linejoin:miter;stroke-miterlimit:4;stroke-opacity:1;stroke-dasharray:none" id="path3783" d="m 3029.9169,109.87877 c 1.5436,8.63669 -3.6971,12.26821 -7.0621,17.2836 -12.4766,0.417 -17.5311,5.78202 -21.1863,12.07991 9.2141,-4.06488 10.4003,-2.96902 13.0091,-2.78767 -2.8978,11.5636 -9.7771,11.18278 -15.9827,12.82331 5.0311,3.93969 3.4025,9.71652 21.5581,10.03564 -6.265,9.40245 -4.5733,18.35025 6.5045,26.76168 2.3267,-6.52024 1.0586,-15.0946 9.664,-18.02697 7.3522,3.76984 5.8109,10.19457 5.0178,16.35437 16.3587,-4.51648 19.3943,-14.47303 20.8147,-25.08908 6.5837,-2.48483 11.3451,2.3198 15.9826,7.61964 -0.616,-7.21364 2.5859,-14.37021 -8.7347,-21.74387 4.8389,-0.30745 6.3537,-6.70901 16.5402,2.78767 -2.1137,-12.59695 -8.3758,-14.13126 -13.195,-19.51372 l -14.4959,-10.59317 c -7.0449,-2.21406 -12.4025,1.19593 -18.0269,3.71689 -0.5052,-5.87875 -5.5727,-8.71584 -10.4074,-11.70823 z"/>
    <path inkscape:connector-curvature="0" style="fill:none;stroke:#000000;stroke-width:2.43608451;stroke-linecap:round;stroke-linejoin:miter;stroke-miterlimit:4;stroke-opacity:1;stroke-dasharray:none" id="path3785" d="m 3017.0936,151.32222 c 5.5452,-1.39781 7.9125,-3.70359 11.1789,-5.75248"/>
    <path inkscape:connector-curvature="0" style="fill:none;stroke:#000000;stroke-width:2.43608451;stroke-linecap:round;stroke-linejoin:miter;stroke-miterlimit:4;stroke-opacity:1;stroke-dasharray:none" id="path3787" d="m 3024.8991,155.59665 c 3.347,0.74865 6.2743,0.23838 8.9206,-1.11507"/>
    <path inkscape:connector-curvature="0" style="fill:none;stroke:#000000;stroke-width:2.43608451;stroke-linecap:round;stroke-linejoin:miter;stroke-miterlimit:4;stroke-opacity:1;stroke-dasharray:none" id="path3789" d="m 3041.2535,161.17201 c 0.7033,-3.06585 -3.044,-4.15366 -5.2037,-5.94705"/>
    <path inkscape:connector-curvature="0" style="fill:none;stroke:#000000;stroke-width:2.43608451;stroke-linecap:round;stroke-linejoin:miter;stroke-miterlimit:4;stroke-opacity:1;stroke-dasharray:none" id="path3791" d="m 3052.0325,161.91539 c -0.3725,-2.66319 -1.5711,-4.70677 -3.3452,-6.31874"/>
    <path inkscape:connector-curvature="0" style="fill:none;stroke:#000000;stroke-width:2.43608451;stroke-linecap:round;stroke-linejoin:miter;stroke-miterlimit:4;stroke-opacity:1;stroke-dasharray:none" id="path3793" d="m 3035.1206,120.65778 0,5.38951"/>
    <path inkscape:connector-curvature="0" style="fill:#fbd3c7;fill-opacity:1;stroke:#000000;stroke-width:2.43608451;stroke-linecap:butt;stroke-linejoin:miter;stroke-miterlimit:4;stroke-opacity:1;stroke-dasharray:none" id="path3795" d="m 3035.8723,50.261166 c 0.2795,-2.066587 -1.5001,-4.149273 2.9427,-7.777118 9.4245,-6.760321 20.4975,-9.559947 35.5225,-10.719783 15.7556,-0.853015 22.3561,7.794825 26.9045,27.114765 19.8153,5.380758 21.9303,10.186101 24.8656,14.228804 1.9762,3.095382 8.1509,29.548936 -18.9079,50.357726 3.5125,-9.40641 -0.8951,-15.28785 -9.3634,-20.18106 -13.8493,38.38991 -44.602,52.65513 -54.6687,52.9732 -10.9657,-0.88751 -16.5177,-6.28637 -17.9265,-15.13799 0.3049,-2.97944 -1.8454,-5.77872 11.3535,-14.93877 1.277,-1.12094 6.8168,-1.50478 13.1461,0.39836 4.7294,-4.24924 12.7426,-12.48217 10.7559,-18.72327 -0.9449,-12.473886 -10.2429,-13.085295 -15.9677,-18.867435 -3.6037,-2.894364 -6.789,-16.843169 -9.077,-24.224176 l -13.8726,-1.681536 c 3.4036,-2.242042 6.0321,-4.063717 6.0956,-6.305759 -3.3933,-2.012758 -5.2005,-3.906242 -7.1466,-6.095579 4.3046,-0.950223 9.9853,-0.524282 15.344,-0.420379 z"/>
    <path inkscape:connector-curvature="0" style="fill:none;stroke:#000000;stroke-width:2.87322211;stroke-linecap:butt;stroke-linejoin:miter;stroke-miterlimit:4;stroke-opacity:1;stroke-dasharray:none" id="path3839" d="m 3100.4974,82.572737 c 2.3208,-1.012729 2.3409,3.236326 1.3812,7.596296"/>
    <path inkscape:connector-curvature="0" style="fill:none;stroke:#000000;stroke-width:2.87322211;stroke-linecap:butt;stroke-linejoin:miter;stroke-miterlimit:4;stroke-opacity:1;stroke-dasharray:none" id="path3849" d="m 3056.2821,84.870261 c 2.7754,-4.722017 7.8596,-9.451326 15.7065,-14.595971"/>
    <path inkscape:connector-curvature="0" style="fill:none;stroke:#000000;stroke-width:2.87322211;stroke-linecap:butt;stroke-linejoin:miter;stroke-miterlimit:4;stroke-opacity:1;stroke-dasharray:none" id="path3851" d="m 3050.0947,80.269358 c 6.2658,-6.625833 14.047,-11.672442 21.5766,-16.023829"/>
    <path inkscape:connector-curvature="0" style="fill:none;stroke:#000000;stroke-width:2.87322211;stroke-linecap:butt;stroke-linejoin:miter;stroke-miterlimit:4;stroke-opacity:1;stroke-dasharray:none" id="path3853" d="m 3049.4601,72.971385 c 6.4244,-4.880671 15.3162,-8.658064 21.5766,-10.31238"/>
    <path inkscape:connector-curvature="0" style="fill:#000000;stroke:none" id="path3857" d="m 3070.2435,59.485972 1.5865,10.153714 8.4085,-6.663365 20.6247,-2.06247 -0.3173,-2.855737 -19.6728,-0.634604 -10.6296,1.427858 z"/>
    <path inkscape:connector-curvature="0" style="fill:url(#linearGradient6274);fill-opacity:1;stroke:none" id="path3871" d="m 3035.7173,64.376262 -11.939,-1.730782 c 2.3718,-1.960987 4.5441,-4.289587 4.3861,-6.194832 -2.0687,-1.06746 -5.4956,-4.179704 -6.8531,-5.405229 l 14.5541,-0.28032 c -0.892,-14.883141 30.3091,-17.410932 39.6033,-17.961129 19.4295,-1.10299 22.5482,17.920848 24.7222,25.395595 -17.0114,-4.418139 -46.4692,3.216659 -62.472,11.416783 z" sodipodi:nodetypes="ccccccccc"/>
    <path inkscape:connector-curvature="0" style="fill:#fffbcb;fill-opacity:1;stroke:none" id="path3873" d="m 3080.8346,62.119542 c -5.2563,4.521064 -10.7456,10.279408 -15.9993,18.102885 -0.41,4.020079 6.5601,9.402027 11.9236,3.62385 0.6053,0.922695 4.6951,7.782945 7.8074,8.288452 4.1161,-19.728358 9.43,-26.12085 23.2997,-31.263315 l -6.4201,-1.710813 c -7.8142,-2.599952 -14.8809,-2.359567 -20.6113,2.958941 z" sodipodi:nodetypes="ccccccc"/>
    <path inkscape:connector-curvature="0" style="fill:#f4845f;fill-opacity:1;stroke:none" id="path3875" d="m 3087.1504,93.783711 c 12.5494,13.201759 21.8703,13.485289 21.9498,27.355969 16.2804,-11.03424 21.11,-35.049209 16.7411,-47.416479 -2.6396,-3.644297 -6.9462,-8.700833 -14.7636,-11.315531 -15.9283,2.722345 -25.0367,17.976793 -23.9273,31.376041 z" sodipodi:nodetypes="ccccc"/>
    <path inkscape:connector-curvature="0" style="fill:#784b24;fill-opacity:1;stroke:#000000;stroke-width:2.43608451;stroke-linecap:round;stroke-linejoin:round;stroke-miterlimit:4;stroke-opacity:1;stroke-dasharray:none" id="path2986" d="m 2948.8542,132.50905 c -21.3158,56.45959 18.4935,114.7083 63.595,143.26343 2.6473,0.71858 7.0311,-1.04354 7.6873,-5.9402 -6.6292,-2.90442 -12.1303,-6.37291 -16.8983,-10.2079 11.6282,9.81882 27.1914,16.81054 52.5584,15.18035 4.5075,-1.65796 -0.1191,-6.09588 -2.7479,-9.92573 -1.3869,-1.74973 -3.349,-3.6389 5.7948,-2.83572 32.862,3.82327 46.4254,-8.1676 55.8514,-23.54883 8.748,-12.95549 50.2443,-24.12181 59.5797,-31.72552 3.2755,-5.05783 -36.0687,3.5985 -42.3187,4.84779 -6.0293,3.77265 -9.6698,8.22783 -11.0964,13.31556 2.8349,-10.5602 23.8733,-19.03889 7.8907,-31.06966 -2.4011,-2.32852 -10.7387,12.39191 -15.1649,20.58981 4.4299,-14.31215 28.6714,-29.99063 13.2834,-42.93605 l -27.7859,23.58719 c 32.401,-30.93773 42.4879,-32.24885 86.8157,-58.78273 16.0366,-8.44246 -3.8727,-8.74675 -7.6566,-8.52102 -26.8734,-0.96807 -55.8075,19.08263 -84.2223,33.83712 -11.0656,6.65747 -21.0431,13.6776 -36.801,18.77095 -12.4637,13.56683 -26.1713,25.09023 -43.2226,31.12027 9.0152,-4.2541 18.1074,-6.70342 28.8974,-17.28904 -39.843,1.69016 -71.4428,-5.54985 -83.7283,-33.71363 3.3049,8.12697 9.0123,14.50674 15.9306,20.0059 l 9.7559,-13.70774 c -7.6882,-10.59298 -8.0841,-18.8766 -7.1626,-24.45165 11.2591,8.14809 6.7539,-0.25624 5.5572,-5.18671 -4.6007,-9.67754 -11.2897,-14.73087 -20.4998,-14.2017 2.7672,-2.62659 7.7873,-3.63236 6.4216,-8.64452 -2.8742,-1.00983 -8.4557,-0.56133 -11.3613,0.49396 -3.6468,4.69935 -6.7344,10.40512 -8.9525,17.67602 z" sodipodi:nodetypes="cccccccccccccccccccccccccccccc"/>
    <path inkscape:connector-curvature="0" style="fill:#ffffff;stroke:#000000;stroke-width:2.29857755;stroke-linecap:butt;stroke-linejoin:miter;stroke-miterlimit:4;stroke-opacity:1;stroke-dasharray:none" id="path3762" d="m 2944.0753,175.7726 c 0.7195,0.0884 3.6287,-1.16018 5.8825,-3.46811 0.8307,-8.23148 3.5072,-7.97251 6.992,-3.99541 0.5176,1.269 0.652,1.59395 -1.9977,4.02945 1.4768,0.16953 3.7811,-0.27326 2.9965,3.56182 -1.1886,3.04204 -3.5987,2.57214 -6.3927,0.99884 -2.7201,0.74748 -4.7052,3.09201 -4.3104,5.79334 -0.067,0.44756 0.9647,1.85127 4.4251,1.28582 2.3898,-3.36112 4.5766,-4.01568 6.3621,0.68165 0.7034,2.67507 -1.4311,2.94891 -3.2568,3.484 1.6193,1.94396 4.3277,3.88793 -1.8177,5.8319 -1.9787,0.84213 -2.1203,-0.72612 -2.9279,-2.03099 -0.6499,-1.82758 0.3778,-1.9548 -0.4046,-3.11926 -1.1917,-1.40511 -1.909,0.45583 -2.8915,0.43465" sodipodi:nodetypes="cccccccccccccc"/>
    <path inkscape:connector-curvature="0" style="fill:#ffffff;stroke:#000000;stroke-width:1.14928877px;stroke-linecap:butt;stroke-linejoin:miter;stroke-opacity:1" id="path3807" d="m 3071.4446,47.55976 c 1.7502,-1.79587 2.0357,-2.465022 1.9888,-2.878466 -1.3091,-6.205665 6.3283,-5.794896 7.9549,-3.715824 4.5429,4.773207 1.3063,9.564416 -2.4597,8.478361 -2.3387,0.549228 -2.0891,2.238352 -3.7682,2.302774 -0.1302,-1.087931 0,-2.75906 0.1047,-3.872838 -1.5019,0.03496 -2.4539,0.105848 -3.8205,-0.314007 z"/>
    <path inkscape:connector-curvature="0" style="fill:#000000;fill-opacity:1;fill-rule:nonzero;stroke:none" id="path3811" d="m 3078.5099,43.320591 a 1.4653956,1.4653956 0 1 1 -2.9307,0 1.4653956,1.4653956 0 1 1 2.9307,0 z"/>
    <path inkscape:connector-curvature="0" style="fill:#000000;fill-opacity:1;fill-rule:nonzero;stroke:none" id="path3813" d="m 3081.3883,45.780354 a 1.4653956,1.4653956 0 1 1 -2.9307,0 1.4653956,1.4653956 0 1 1 2.9307,0 z"/>
    <path inkscape:connector-curvature="0" style="fill:#ffffff;stroke:#000000;stroke-width:1.14928877px;stroke-linecap:butt;stroke-linejoin:miter;stroke-opacity:1" id="path3815" d="m 3044.682,54.20446 c -1.387,-2.089162 -1.9811,-2.509187 -2.3951,-2.550373 -6.3421,-0.02724 -4.3321,-7.406842 -1.9571,-8.559142 5.6229,-3.435688 9.625,0.73741 7.7701,4.190199 0.044,2.401878 1.7482,2.513706 1.4576,4.168627 -1.091,-0.101836 -2.697,-0.582216 -3.7639,-0.918001 -0.2822,1.475581 -0.4134,2.421216 -1.1116,3.668658 z"/>
    <path inkscape:connector-curvature="0" style="fill:#000000;fill-opacity:1;fill-rule:nonzero;stroke:none" id="path3817" d="m 3042.0259,46.404812 a 1.4654029,1.4654029 0 0 1 -0.6173,2.865059 1.4654029,1.4654029 0 0 1 0.6173,-2.865059 z"/>
    <path inkscape:connector-curvature="0" style="fill:#000000;fill-opacity:1;fill-rule:nonzero;stroke:none" id="path3819" d="m 3045.0367,44.108965 a 1.4654004,1.4654004 0 0 1 -0.6173,2.865054 1.4654004,1.4654004 0 1 1 0.6173,-2.865054 z"/>
    <path inkscape:connector-curvature="0" style="fill:#ffffff;stroke:#000000;stroke-width:1.14928877px;stroke-linecap:butt;stroke-linejoin:miter;stroke-opacity:1" id="path3821" d="m 3059.4807,62.724056 c -0.88,-2.34821 -1.3086,-2.116405 -1.7027,-2.249939 -6.1725,-1.457339 -2.5494,-8.19323 0.024,-8.780014 6.2531,-2.078581 9.2105,2.889802 6.6245,5.835129 -0.4986,2.349957 1.0089,1.327995 0.3524,2.874677 -1.0399,-0.345319 -2.3689,0.339672 -3.3326,-0.22818 -0.6078,1.373887 -1.3303,0.994203 -2.292,2.051975 z" sodipodi:nodetypes="cccccccc"/>
    <path inkscape:connector-curvature="0" style="fill:#000000;fill-opacity:1;fill-rule:nonzero;stroke:none" id="path3823" d="m 3058.7079,55.301311 a 1.4653968,1.4653968 0 1 1 -1.2477,2.651942 1.4653968,1.4653968 0 1 1 1.2477,-2.651942 z"/>
    <path inkscape:connector-curvature="0" style="fill:#000000;fill-opacity:1;fill-rule:nonzero;stroke:none" id="path3825" d="m 3062.159,53.743906 a 1.4653955,1.4653955 0 1 1 -1.2476,2.651946 1.4653955,1.4653955 0 1 1 1.2476,-2.651946 z"/>
    <path inkscape:connector-curvature="0" style="fill:#ffffff;stroke:#000000;stroke-width:1.14928877px;stroke-linecap:butt;stroke-linejoin:miter;stroke-opacity:1" id="path3827" d="m 3097.6846,45.896909 c 0.047,6.342057 -4.9515,4.026997 -6.1314,1.665648 -3.5012,-5.582357 -0.6333,-9.437237 2.8409,-7.622878 1.087,1.847543 0.5181,2.63385 3.2905,5.95723 z" sodipodi:nodetypes="cccc"/>
    <path inkscape:connector-curvature="0" style="fill:#000000;fill-opacity:1;fill-rule:nonzero;stroke:none" id="path3829" d="m 3094.843,45.827894 a 1.4653955,1.4653955 0 1 1 2.872,0.583706 1.4653955,1.4653955 0 1 1 -2.872,-0.583706 z"/>
    <path inkscape:connector-curvature="0" style="fill:#000000;fill-opacity:1;fill-rule:nonzero;stroke:none" id="path3831" d="m 3092.5121,42.844121 a 1.465407,1.465407 0 1 1 2.8721,0.583706 1.465407,1.465407 0 1 1 -2.8721,-0.583706 z"/>
    <path inkscape:connector-curvature="0" style="fill:#ffffff;stroke:#000000;stroke-width:1.14928877px;stroke-linecap:butt;stroke-linejoin:miter;stroke-opacity:1" id="path3833" d="m 3065.6134,32.038909 c 6.0916,1.765414 2.1349,7.220615 -0.465,7.677446 -6.3495,1.762004 -9.0538,-3.348572 -6.3232,-6.160362 4.8128,-1.107172 4.5583,-0.693634 6.7882,-1.517084 z"/>
    <path inkscape:connector-curvature="0" style="fill:#000000;fill-opacity:1;fill-rule:nonzero;stroke:none" id="path3835" d="m 3064.4249,36.068246 a 1.4654028,1.4654028 0 1 1 1.3793,-2.585953 1.4654028,1.4654028 0 1 1 -1.3793,2.585953 z"/>
    <path inkscape:connector-curvature="0" style="fill:#000000;fill-opacity:1;fill-rule:nonzero;stroke:none" id="path3837" d="m 3060.9,37.450431 a 1.4653956,1.4653956 0 1 1 1.3792,-2.585952 1.4653956,1.4653956 0 1 1 -1.3792,2.585952 z"/>
    <path inkscape:connector-curvature="0" style="fill:none;stroke:#000000;stroke-width:2.87322235;stroke-linecap:butt;stroke-linejoin:miter;stroke-miterlimit:4;stroke-opacity:1;stroke-dasharray:none" id="path3801" d="m 3037.3101,70.909844 c 18.4863,-9.362762 44.433,-18.082336 64.0872,-12.219014" sodipodi:nodetypes="cc"/>
    <path inkscape:connector-curvature="0" style="fill:none;stroke:#000000;stroke-width:2.43608451;stroke-linecap:butt;stroke-linejoin:miter;stroke-miterlimit:4;stroke-opacity:1;stroke-dasharray:none" id="path3894" d="m 3055.3912,34.766057 c 4.9762,-1.335141 9.9522,-2.228705 14.9283,-2.683725"/>
    <path inkscape:connector-curvature="0" style="fill:none;stroke:#000000;stroke-width:2.43608451;stroke-linecap:butt;stroke-linejoin:miter;stroke-miterlimit:4;stroke-opacity:1;stroke-dasharray:none" id="path3896" d="m 3093.2152,39.12714 c 3.389,5.509984 4.2374,7.288391 5.7868,11.741358"/>
    <path inkscape:connector-curvature="0" style="fill:#ffffff;stroke:#000000;stroke-width:2.29857755;stroke-linecap:butt;stroke-linejoin:miter;stroke-miterlimit:4;stroke-opacity:1;stroke-dasharray:none" id="path3764" d="m 2943.8312,171.12514 c 0.7374,0.1 2.4811,-0.91781 2.9748,-3.25453 l 0.4298,-6.40456 c 4.8278,-2.08904 9.4395,-3.60097 9.4552,-14.11145 0.2592,-6.71856 -2.5603,-10.6261 -8.0199,-12.1231 -0.8846,1.96524 -2.1098,3.81692 -1.9031,6.14592 l -3.2705,16.77962 c 0.1498,2.91291 -0.5873,5.65937 0.3337,12.9681 z"/>
    <path inkscape:connector-curvature="0" style="fill:none;stroke:#000000;stroke-width:2.87322235;stroke-linecap:butt;stroke-linejoin:miter;stroke-miterlimit:4;stroke-opacity:1;stroke-dasharray:none" id="path3855" d="m 3092.8827,57.235172 c -3.9265,2.802854 -10.0627,8.808427 -12.3269,12.56318" sodipodi:nodetypes="cc"/>
    <path inkscape:connector-curvature="0" style="fill:none;stroke:#000000;stroke-width:2.43608451;stroke-linecap:round;stroke-linejoin:miter;stroke-miterlimit:4;stroke-opacity:1;stroke-dasharray:none" id="path3756" d="m 2982.5203,194.67874 c 0,0 9.7888,0.99885 15.5821,0"/>
    <path inkscape:connector-curvature="0" style="fill:none;stroke:#000000;stroke-width:2.43608451;stroke-linecap:round;stroke-linejoin:miter;stroke-miterlimit:4;stroke-opacity:1;stroke-dasharray:none" id="path3758" d="m 3072.2172,224.64428 c 0,0 12.5855,0.99884 18.3788,0"/>
    <path inkscape:connector-curvature="0" style="fill:none;stroke:#000000;stroke-width:2.43608451;stroke-linecap:round;stroke-linejoin:miter;stroke-miterlimit:4;stroke-opacity:1;stroke-dasharray:none" id="path3760" d="m 3090.3962,213.65691 c 0.8504,8.11058 5.4297,11.37355 11.5867,12.58553 1.0181,2.6636 0.3184,5.32719 5.7933,7.9908"/>
    <path inkscape:connector-curvature="0" style="fill:#000000;fill-opacity:1;fill-rule:nonzero;stroke:none" id="path3825-1" d="m 2949.2389,142.09739 c 0.9024,0.42341 1.6247,1.21593 1.9628,2.15353 0.3382,0.9376 0.288,2.00873 -0.1363,2.91061 -0.4243,0.90189 -2.157,4.59838 -3.0949,4.9356 -0.938,0.33721 -2.0091,0.28596 -2.9105,-0.13927 -0.9023,-0.42341 -0.6852,-4.19088 -1.0234,-5.12848 -0.3381,-0.93761 -0.2879,-2.00873 0.1363,-2.91062 0.4244,-0.90189 1.2176,-1.62341 2.1556,-1.96063 0.9379,-0.33722 2.009,-0.28597 2.9104,0.13926 z" sodipodi:nodetypes="cssscsssc"/>
    <path d="m 3035.8723,50.261166 c 0.2795,-2.066587 -1.5001,-4.149273 2.9427,-7.777118 9.4245,-6.760321 20.4975,-9.559947 35.5225,-10.719783 15.7556,-0.853015 22.3561,7.794825 26.9045,27.114765 19.8153,5.380758 21.9303,10.186101 24.8656,14.228804 1.9762,3.095382 8.1509,29.548936 -18.9079,50.357726 3.5125,-9.40641 -0.8951,-15.28785 -9.3634,-20.18106 -13.8493,38.38991 -44.602,52.65513 -54.6687,52.9732 -10.9657,-0.88751 -16.5177,-6.28637 -17.9265,-15.13799 0.3049,-2.97944 -1.8454,-5.77872 11.3535,-14.93877 1.277,-1.12094 6.8168,-1.50478 13.1461,0.39836 4.7294,-4.24924 12.7426,-12.48217 10.7559,-18.72327 -0.9449,-12.473886 -10.2429,-13.085295 -15.9677,-18.867435 -3.6037,-2.894364 -6.789,-16.843169 -9.077,-24.224176 l -13.8726,-1.681536 c 3.4036,-2.242042 6.0321,-4.063717 6.0956,-6.305759 -3.3933,-2.012758 -5.2005,-3.906242 -7.1466,-6.095579 4.3046,-0.950223 9.9853,-0.524282 15.344,-0.420379 z" id="path6246" style="fill:none;stroke:#000000;stroke-width:2.43608451;stroke-linecap:butt;stroke-linejoin:miter;stroke-miterlimit:4;stroke-opacity:1;stroke-dasharray:none" inkscape:connector-curvature="0"/>
    <path style="fill:none;stroke:#000000;stroke-width:1.62405634;stroke-linecap:round;stroke-linejoin:miter;stroke-miterlimit:4;stroke-opacity:1;stroke-dasharray:none" d="m 3102.364,85.309133 c 2.2045,2.646745 3.1592,5.13726 0.6643,7.196571" id="path6251" inkscape:connector-curvature="0" sodipodi:nodetypes="cc"/>
    <path style="fill:#feff07;fill-opacity:1;stroke:none" d="m 3129.102,87.523461 -0.775,6.089407 3.5429,-0.332148 -0.4429,-6.200123 z" id="path6259" inkscape:connector-curvature="0"/>
    <path style="fill:#dc2c2e;fill-opacity:1;stroke:none" d="m 3148.4774,86.084149 0.2214,6.642987 3.2108,-0.442864 -1.1072,-6.864423 z" id="path6261" inkscape:connector-curvature="0"/>
    <path style="fill:#ffffff;stroke:none" d="m 3132.2021,87.302029 0.1107,6.310839 16.8289,-1.550027 -0.5536,-6.42156 z" id="path6263" inkscape:connector-curvature="0"/>
    <path d="m 2943.3797,-122.70024 0,254.29337 67.3775,0 0,-66.838433 116.3791,149.810333 57.4239,-48.40029 -88.05,-106.787841 52.7791,-68.9722292 -101.7808,-115.4096998 -38.2827,35.339874 0,-33.034244 z" id="path6276" style="fill:none;stroke:#ffffff;stroke-width:25;stroke-linecap:butt;stroke-linejoin:bevel;stroke-miterlimit:4;stroke-opacity:1;stroke-dasharray:none;filter:url(#filter6535)" inkscape:connector-curvature="0" transform="matrix(0.40601408,0,0,0.40601408,1661.8315,299.87773)"/>
    <path d="m 3148.5746,-8.2298175 105.66,-129.0673325 125.5669,174.394548 141.6456,-169.016758 62.0178,84.508374 -52.0643,57.619375 -17.2246,-16.1483929 -51.6841,63.0121179 99.5348,0 44.4078,46.863746 0,-228.17262 64.3148,0 0,36.108093 36.2981,-32.533343 53.2363,53.731031 -55.8457,55.628138 136.286,178.235851 -51.2985,43.25762 -118.6762,-151.582 0,79.89885 -238.8835,0 -53.5956,-62.22889 -52.83,61.46061 -162.3183,0 -67.3774,-79.13057 z" id="path6278" style="fill:none;stroke:#ffffff;stroke-width:25;stroke-linecap:butt;stroke-linejoin:bevel;stroke-miterlimit:4;stroke-opacity:1;stroke-dasharray:none;filter:url(#filter6531)" inkscape:connector-curvature="0" transform="matrix(0.40601408,0,0,0.40601408,1661.8315,299.87773)"/>
    <path style="fill:url(#linearGradient6724);fill-opacity:1;stroke:none" d="m 2983.1028,244.12692 -42.9106,52.41388 -4.2505,5.37968 -16.8876,22.06433 1.0784,1.30686 25.9723,30.5145 65.9011,0 21.4553,-24.95718 21.7598,25.26169 96.9867,0 0,-32.44307 48.1887,61.5492 20.821,-17.56011 -55.3321,-72.37201 22.6733,-22.58453 -21.6076,-21.81057 -14.7433,13.20815 0,-14.66726 -26.1118,0 0,92.64733 -18.0296,-19.03191 -40.4111,0 20.9859,-25.57888 6.991,6.55966 21.1382,-23.39656 -25.1856,-34.30819 -57.5018,68.61638 -50.9801,-70.81139 z m -62.9703,81.16475 -1.3829,-1.62406 17.1921,-21.74713 4.5423,-5.93795 -41.3246,-46.85656 -15.5427,14.35006 0,-13.41116 -26.7335,0 0,103.24177 27.3552,0 0,-27.1395 47.2499,60.82598 23.3204,-19.65362 -34.6762,-42.04783 z m 60.4327,-27.19026 18.9304,24.36085 -38.6855,0 19.7551,-24.36085 z" id="path6081" inkscape:connector-curvature="0"/>
    <path inkscape:connector-curvature="0" style="fill:none;stroke:#000000;stroke-width:3.99036145;stroke-linecap:butt;stroke-linejoin:bevel;stroke-miterlimit:4;stroke-opacity:1;stroke-dasharray:none" id="path5283" d="m 2856.8851,250.0597 0,103.24669 27.3562,0 0,-27.13735 47.2515,60.82511 23.315,-19.6512 -35.7496,-43.35737 21.4291,-28.00369 -41.3245,-46.85797 -15.5433,14.34849 0,-13.41237 z"/>
    <path inkscape:connector-curvature="0" style="fill:none;stroke:#000000;stroke-width:3.99036145;stroke-linecap:butt;stroke-linejoin:bevel;stroke-miterlimit:4;stroke-opacity:1;stroke-dasharray:none" id="path5285" d="m 2940.1971,296.5363 42.8994,-52.40315 50.982,70.80664 57.5101,-68.62318 25.1801,34.31159 -21.1389,23.39428 -6.9934,-6.55648 -20.9845,25.58381 40.4126,0 18.0302,19.02734 0,-92.6413 26.1127,0 0,14.6604 14.7375,-13.209 21.6147,21.81556 -22.6741,22.5858 55.334,72.36627 -20.8279,17.5632 -48.1842,-61.54442 0,32.44005 -96.9901,0 -21.7606,-25.2658 -21.4497,24.95387 -65.9035,0 -27.3562,-32.12812 z"/>
    <path inkscape:connector-curvature="0" style="fill:none;stroke:#000000;stroke-width:1.42104924;stroke-linecap:butt;stroke-linejoin:bevel;stroke-miterlimit:4;stroke-opacity:1;stroke-dasharray:none" id="path5287" d="m 2861.1782,253.76618 0,95.19128 19.1657,0 0,-34.68687 51.5311,66.18151 16.6358,-13.8648 -35.019,-42.77913 21.1457,-27.53733 -35.7239,-40.31419 -18.7911,17.14852 0,-19.33913 z" sodipodi:nodetypes="cccccccccccc"/>
    <path inkscape:connector-curvature="0" style="fill:none;stroke:#000000;stroke-width:1.42104924;stroke-linecap:butt;stroke-linejoin:bevel;stroke-miterlimit:4;stroke-opacity:1;stroke-dasharray:none" id="path5289" d="m 2924.6352,323.80817 58.1695,-72.44321 51.7796,71.81737 -24.6526,28.32182 -61.8965,0 z" sodipodi:nodetypes="cccccc"/>
    <path inkscape:connector-curvature="0" style="fill:none;stroke:#000000;stroke-width:1.42104924;stroke-linecap:butt;stroke-linejoin:bevel;stroke-miterlimit:4;stroke-opacity:1;stroke-dasharray:none" id="path5291" d="m 3095.0753,297.05487 15.2852,-17.05609 -19.3394,-26.1309 -57.8602,69.15856 23.2435,28.32113 71.1202,0 -20.9064,-23.15961 -49.4245,0 31.0207,-36.45257 z" sodipodi:nodetypes="cccccccccc"/>
    <path inkscape:connector-curvature="0" style="fill:none;stroke:#000000;stroke-width:1.42104924;stroke-linecap:butt;stroke-linejoin:bevel;stroke-miterlimit:4;stroke-opacity:1;stroke-dasharray:none" id="path5293" d="m 3130.9396,254.33808 0,97.00926 16.2194,0 0,-41.77412 53.4318,68.92212 14.2463,-11.50271 -55.3549,-71.97349 22.9106,-22.36312 -15.5364,-15.77436 -19.7,17.79534 0,-20.33851 z" sodipodi:nodetypes="cccccccccccc"/>
    <path inkscape:connector-curvature="0" style="fill:none;stroke:#000000;stroke-width:1.21804225;stroke-linecap:butt;stroke-linejoin:bevel;stroke-miterlimit:4;stroke-opacity:1;stroke-dasharray:none" id="path5295" d="m 2980.9741,289.92602 29.3977,37.69872 -60.6942,0 z" sodipodi:nodetypes="cccc"/>
    <path inkscape:connector-curvature="0" style="fill:none;stroke:#000000;stroke-width:3.99036145;stroke-linecap:butt;stroke-linejoin:miter;stroke-miterlimit:4;stroke-opacity:1;stroke-dasharray:none" id="path5297" d="m 2980.5626,298.09782 -19.7523,24.36147 38.6815,0 z"/>
    <path style="fill:#000000;fill-opacity:1;stroke:none" d="m 2899.0842,284.83452 -10.533,12.67197 19.7825,0 -9.2495,-12.67197 z m -0.3098,4.60262 c 1.854,0 3.3782,1.50942 3.3782,3.36346 0,1.85404 -1.5242,3.36346 -3.3782,3.36346 -1.8541,0 -3.3783,-1.50942 -3.3783,-3.36346 0,-1.85404 1.5242,-3.36346 3.3783,-3.36346 z m 0,1.40144 c -1.0887,0 -1.9473,0.87335 -1.9473,1.96202 0,1.08867 0.8586,1.96202 1.9473,1.96202 1.0886,0 1.9472,-0.87335 1.9472,-1.96202 0,-1.08867 -0.8586,-1.96202 -1.9472,-1.96202 z" id="path5305" inkscape:connector-curvature="0"/>
    <path inkscape:connector-curvature="0" style="opacity:0.5;fill:#ffffff;fill-opacity:1;fill-rule:nonzero;stroke:#000000;filter:url(#filter3947)" id="path3863" transform="matrix(0.18941404,0,0,0.18428282,3215.8289,334.3636)" d="m -79.695978,402.16757 -8.198939,-120.85871 -120.963503,-6.47164 120.858713,-8.19894 6.47164,-120.9635 8.19894,120.85871 120.963497,6.47164 -120.858708,8.19894 z"/>
    <path inkscape:connector-curvature="0" style="opacity:0.5;fill:#ffffff;fill-opacity:1;fill-rule:nonzero;stroke:#000000;filter:url(#filter3943)" id="path3901" transform="matrix(0.08238255,-0.08015082,0.08238255,0.08015082,3184.6346,357.16576)" d="m -79.695978,402.16757 -8.19894,-120.85871 -120.963502,-6.47164 120.858713,-8.19894 6.47164,-120.9635 8.19894,120.85871 120.963497,6.47164 -120.858708,8.19894 z"/>
    <path inkscape:connector-curvature="0" style="opacity:0.5;fill:#ffffff;fill-opacity:1;fill-rule:nonzero;stroke:#000000;filter:url(#filter3947)" id="path3951" transform="matrix(0.18941404,0,0,0.18428282,3182.5771,207.36835)" d="m -79.695978,402.16757 -8.19894,-120.85871 -120.963502,-6.47164 120.858713,-8.19894 6.47164,-120.9635 8.19894,120.85871 120.963497,6.47164 -120.858708,8.19894 z"/>
    <path inkscape:connector-curvature="0" style="opacity:0.5;fill:#ffffff;fill-opacity:1;fill-rule:nonzero;stroke:#000000;filter:url(#filter3943)" id="path3953" transform="matrix(0.08238255,-0.08015082,0.08238255,0.08015082,3151.3827,230.17052)" d="m -79.695978,402.16757 -8.19894,-120.85871 -120.963502,-6.47164 120.858713,-8.19894 6.47164,-120.9635 8.19894,120.85871 120.963497,6.47164 -120.858708,8.19894 z"/>
    <path inkscape:connector-curvature="0" style="opacity:0.5;fill:#ffffff;fill-opacity:1;fill-rule:nonzero;stroke:#000000;filter:url(#filter3947)" id="path3955" transform="matrix(0.18941404,0,0,0.18428282,3086.3588,246.60266)" d="m -79.695978,402.16757 -8.19894,-120.85871 -120.963502,-6.47164 120.858713,-8.19894 6.47164,-120.9635 8.19894,120.85871 120.963497,6.47164 -120.858708,8.19894 z"/>
    <path inkscape:connector-curvature="0" style="opacity:0.5;fill:#ffffff;fill-opacity:1;fill-rule:nonzero;stroke:#000000;filter:url(#filter3943)" id="path3957" transform="matrix(0.08238255,-0.08015082,0.08238255,0.08015082,3055.1644,269.40482)" d="m -79.695978,402.16757 -8.19894,-120.85871 -120.963502,-6.47164 120.858713,-8.19894 6.47164,-120.9635 8.19894,120.85871 120.963497,6.47164 -120.858708,8.19894 z"/>
    <path inkscape:connector-curvature="0" style="opacity:0.5;fill:#ffffff;fill-opacity:1;fill-rule:nonzero;stroke:#000000;filter:url(#filter3947)" id="path3959" transform="matrix(0.18941404,0,0,0.18428282,3025.1612,295.81762)" d="m -79.695978,402.16757 -8.19894,-120.85871 -120.963502,-6.47164 120.858713,-8.19894 6.47164,-120.9635 8.19894,120.85871 120.963497,6.47164 -120.858708,8.19894 z"/>
    <path inkscape:connector-curvature="0" style="opacity:0.5;fill:#ffffff;fill-opacity:1;fill-rule:nonzero;stroke:#000000;filter:url(#filter3943)" id="path3961" transform="matrix(0.08238255,-0.08015082,0.08238255,0.08015082,2993.9668,318.61978)" d="m -79.695978,402.16757 -8.19894,-120.85871 -120.963502,-6.47164 120.858713,-8.19894 6.47164,-120.9635 8.19894,120.85871 120.963497,6.47164 -120.858708,8.19894 z"/>
    <path inkscape:connector-curvature="0" style="opacity:0.5;fill:#ffffff;fill-opacity:1;fill-rule:nonzero;stroke:#000000;filter:url(#filter3943)" id="path3965" transform="matrix(0.08238255,-0.08015082,0.08238255,0.08015082,2846.1021,227.07308)" d="m -79.695978,402.16757 -8.19894,-120.85871 -120.963502,-6.47164 120.858713,-8.19894 6.47164,-120.9635 8.19894,120.85871 120.963497,6.47164 -120.858708,8.19894 z"/>
  </g>
  <g inkscape:groupmode="layer" id="layer9" inkscape:label="Warstwa#2" transform="translate(-2794.9063,-30.505164)">
    <path style="fill:none;stroke:#ffffff;stroke-width:5;stroke-linecap:butt;stroke-linejoin:round;stroke-miterlimit:4;stroke-opacity:1;stroke-dasharray:none;filter:url(#filter6240)" d="m 3571.8323,-518.2984 c -5.2752,-31.44584 -44.5381,-33.59185 -78.2856,-40.4926" id="path6131" inkscape:connector-curvature="0" sodipodi:nodetypes="cc" transform="matrix(0.40601408,0,0,0.40601408,1661.8315,299.87773)"/>
    <path inkscape:connector-curvature="0" style="fill:none;stroke:#000000;stroke-width:2.43608451;stroke-linecap:butt;stroke-linejoin:miter;stroke-miterlimit:4;stroke-opacity:1;stroke-dasharray:none" id="path3805" d="m 3085.9745,92.790783 c -5.4467,-1.054203 -6.9884,-4.593379 -9.3161,-7.63246 -2.8137,1.895952 -3.3706,1.901336 -6.1733,1.908116 -2.7504,-1.013175 -8.039,-4.846845 -5.2753,-8.418149 5.6884,-7.456079 12.3724,-16.154119 22.3361,-21.325995"/>
    <path inkscape:connector-curvature="0" style="fill:none;stroke:#000000;stroke-width:2.43608451;stroke-linecap:butt;stroke-linejoin:miter;stroke-miterlimit:4;stroke-opacity:1;stroke-dasharray:none" id="path3803" d="m 3097.582,103.10984 c -2.9469,-1.65734 -7.3182,-4.699741 -11.9664,-10.26986 1.8891,-20.430218 13.9721,-29.830134 24.8201,-30.964992" sodipodi:nodetypes="ccc"/>
    <path style="fill:none;stroke:#000000;stroke-width:2.43608451;stroke-linecap:butt;stroke-linejoin:miter;stroke-miterlimit:4;stroke-opacity:1;stroke-dasharray:none" d="m 3128.2163,87.302029 23.3612,-1.21788 0.1107,5.978687 -24.1362,1.439316" id="path6253" inkscape:connector-curvature="0" sodipodi:nodetypes="cccc"/>
    <path style="fill:none;stroke:#000000;stroke-width:1.70525908;stroke-linecap:butt;stroke-linejoin:miter;stroke-miterlimit:4;stroke-opacity:1;stroke-dasharray:none" d="m 3131.7592,86.194865 0.3322,7.750155" id="path6255" inkscape:connector-curvature="0"/>
    <path style="fill:none;stroke:#000000;stroke-width:1.70525908;stroke-linecap:butt;stroke-linejoin:miter;stroke-miterlimit:4;stroke-opacity:1;stroke-dasharray:none" d="m 3148.8096,85.419849 0.2214,7.418007" id="path6257" inkscape:connector-curvature="0"/>
    <path inkscape:connector-curvature="0" style="opacity:0.5;fill:#ffffff;fill-opacity:1;fill-rule:nonzero;stroke:#000000;filter:url(#filter3947)" id="path3963" transform="matrix(0.18941404,0,0,0.18428282,2877.2964,204.27092)" d="m -79.695978,402.16757 -8.19894,-120.85871 -120.963502,-6.47164 120.858713,-8.19894 6.47164,-120.9635 8.19894,120.85871 120.963497,6.47164 -120.858708,8.19894 z"/>
  </g>
</svg>